<?xml version="1.0" ?><svg id="Layer_1" style="enable-background:new 0 0 256 256;" version="1.1" viewBox="0 0 256 256" xml:space="preserve" xmlns="http://www.w3.org/2000/svg" xmlns:xlink="http://www.w3.org/1999/xlink"><style type="text/css">
	.st0{fill:#E8E8E8;}
	.st1{fill:#FFAB80;}
	.st2{fill:#F09A79;}
</style><g id="Layer_2"><circle class="st0" cx="128" cy="128" r="120"/></g><g id="Layer_1_1_"><g><g><path class="st1" d="M178.373459,103.50753c0,0.188972-0.010513,0.377945-0.010513,0.566917v0.084007     c-0.262482,14.698387-2.162766,36.850929-10.456818,51.003349c-2.89769,4.95549-6.036835,9.270508-9.249481,12.987076     c-0.514435,0.59845-1.028931,1.186371-1.553879,1.753357C146.068542,181.933868,134.425293,187.067825,128,187.067825     s-18.068542-5.133957-29.102776-17.165588c-0.52494-0.566986-1.039436-1.154907-1.553871-1.753357     c-3.212646-3.716568-6.351791-8.031586-9.249481-12.987076c-8.294052-14.15242-10.194344-36.304962-10.456818-51.003349     v-0.084007c0-0.188972-0.010506-0.377945-0.010506-0.566917c-0.11554-8.535568,0.304443-14.38343,0.304443-14.38343     C77.805008,61.375648,100.262062,38.824081,128,38.824081s50.194992,22.551567,50.069,50.300018     C178.069,89.1241,178.488983,94.971962,178.373459,103.50753z"/></g><g><g><path class="st1" d="M80.240738,132.022385c-5.4384-0.493439-9.312477-6.309807-11.244263-11.076279      c-1.711311-4.252037-2.81369-8.924026-2.414734-13.53302c0.220474-2.551216,0.776917-6.152321,2.866188-7.905632      c2.330742-1.984283,6.666763-0.409454,8.168098,2.152267L80.240738,132.022385z"/></g><g><path class="st1" d="M178.383972,101.659721c1.501328-2.561722,5.837357-4.136551,8.168106-2.152267      c2.089264,1.753311,2.645706,5.354416,2.86618,7.905632c0.398956,4.608994-0.703415,9.280983-2.414734,13.53302      c-1.931793,4.766472-5.805862,10.58284-11.244263,11.076279L178.383972,101.659721z"/></g></g><g><g><path class="st1" d="M80.240753,132.022369c-0.986893-0.084-1.92131-0.346481-2.803177-0.755951      c-1.700874-9.795372-2.288803-19.695778-2.425232-27.569916v-0.084007c-0.021019-1.501328-0.031525-2.929153-0.031525-4.273041      c1.112877,0.535454,2.068237,1.364838,2.635223,2.320267c0,0.776909,0.010506,1.585342,0.021011,2.414726v0.084007      C77.773483,112.085075,78.392944,122.184959,80.240753,132.022369z"/></g><g><path class="st1" d="M181.01918,99.339455c0,1.343887-0.010513,2.771713-0.031525,4.273041v0.084007      c-0.136429,7.874138-0.724365,17.774544-2.425232,27.569916c-0.881866,0.40947-1.816284,0.671951-2.803177,0.755951      c1.847809-9.83741,2.46727-19.937294,2.603699-27.863914v-0.084007c0.010513-0.829384,0.021011-1.637817,0.021011-2.414726      C178.950943,100.704292,179.906311,99.874908,181.01918,99.339455z"/></g></g><g><path class="st2" d="M77.637054,104.158455c0.136429,7.92662,0.75589,18.026505,2.603699,27.863914     c-0.986893-0.084-1.92131-0.346481-2.803177-0.755951c-1.700874-9.795372-2.288803-19.695778-2.425232-27.569916v-0.084007     c-0.021019-1.501328-0.031525-2.929153-0.031525-4.273041c1.112877,0.535454,2.068237,1.364838,2.635223,2.320267     c0,0.776909,0.010506,1.585342,0.021011,2.414726V104.158455z"/></g><g><path class="st2" d="M181.01918,99.339455c0,1.343887-0.010513,2.771713-0.031525,4.273041v0.084007     c-0.136429,7.874138-0.724365,17.774544-2.425232,27.569916c-0.881866,0.40947-1.816284,0.671951-2.803177,0.755951     c1.847809-9.83741,2.46727-19.937294,2.603699-27.863914v-0.084007c0.010513-0.829384,0.021011-1.637817,0.021011-2.414726     C178.950943,100.704292,179.906311,99.874908,181.01918,99.339455z"/></g><g><path class="st1" d="M158.940079,205.031342l-1.480316-28.178879l-0.356995-6.950226l-1.018356-19.29689H99.915581     l-1.018356,19.29689l-0.356987,6.950226l-1.480309,28.157928l-0.001167,0.022095     c-0.180496,3.422668,1.908592,6.566696,5.139412,7.7108c16.689339,5.910049,34.91317,5.910172,51.602577,0.000381     C157.03212,211.599426,159.121277,208.454529,158.940079,205.031342L158.940079,205.031342z"/></g><g><path class="st2" d="M157.459763,176.852463c-11.128754,12.31514-22.960968,17.56456-29.459763,17.56456     c-6.498787,0-18.331009-5.24942-29.459763-17.56456l0.356987-6.950226     C109.931458,181.933868,121.574707,187.067825,128,187.067825s18.068542-5.133957,29.102768-17.165588L157.459763,176.852463z"/></g></g></g></svg>